HIERARCHY
ROOT reference
{
  OFFSET 0 0 0
  CHANNELS 6 Xposition Yposition Zposition Zrotation Xrotation Yrotation
  JOINT root
  {
    OFFSET 0 88.2675 0
    CHANNELS 6 Xposition Yposition Zposition Zrotation Xrotation Yrotation
    JOINT Hips
    {
      OFFSET 0 0 0
      CHANNELS 6 Xposition Yposition Zposition Zrotation Xrotation Yrotation
      JOINT Spine
      {
        OFFSET -0.026472 -0.105469 -0.013598
        CHANNELS 6 Xposition Yposition Zposition Zrotation Xrotation Yrotation
        JOINT Spine1
        {
          OFFSET 4.85355 17.1933 5.02749
          CHANNELS 6 Xposition Yposition Zposition Zrotation Xrotation Yrotation
          JOINT Spine2
          {
            OFFSET 3.45712 17.0434 6.48956
            CHANNELS 6 Xposition Yposition Zposition Zrotation Xrotation Yrotation
            JOINT Neck
            {
              OFFSET 5.14071 15.5862 8.66939
              CHANNELS 6 Xposition Yposition Zposition Zrotation Xrotation Yrotation
              JOINT Head
              {
                OFFSET 4.15254 8.55483 6.52395
                CHANNELS 6 Xposition Yposition Zposition Zrotation Xrotation Yrotation
                End Site
                {
                  OFFSET 0 0 0
                }
              }
            }
            JOINT RightShoulder
            {
              OFFSET 3.29963 14.5423 11.6337
              CHANNELS 6 Xposition Yposition Zposition Zrotation Xrotation Yrotation
              JOINT RightArm
              {
                OFFSET -5.33338 -8.03213 12.8703
                CHANNELS 6 Xposition Yposition Zposition Zrotation Xrotation Yrotation
                JOINT RightForearm
                {
                  OFFSET -0.595355 -13.7862 25.9663
                  CHANNELS 6 Xposition Yposition Zposition Zrotation Xrotation Yrotation
                  JOINT RightHand
                  {
                    OFFSET 13.517 -1.52003 20.8897
                    CHANNELS 6 Xposition Yposition Zposition Zrotation Xrotation Yrotation
                    End Site
                    {
                      OFFSET 0 0 0
                    }
                  }
                }
              }
            }
            JOINT LeftShoulder
            {
              OFFSET 6.99273 16.6182 5.71375
              CHANNELS 6 Xposition Yposition Zposition Zrotation Xrotation Yrotation
              JOINT LeftArm
              {
                OFFSET 6.7187 3.24731 -14.245
                CHANNELS 6 Xposition Yposition Zposition Zrotation Xrotation Yrotation
                JOINT LeftForearm
                {
                  OFFSET -8.81743 -14.5927 -23.9577
                  CHANNELS 6 Xposition Yposition Zposition Zrotation Xrotation Yrotation
                  JOINT LeftHand
                  {
                    OFFSET 10.5264 -21.3111 -7.51208
                    CHANNELS 6 Xposition Yposition Zposition Zrotation Xrotation Yrotation
                    End Site
                    {
                      OFFSET 0 0 0
                    }
                  }
                }
              }
            }
          }
        }
      }
      JOINT RightUpLeg
      {
        OFFSET -4.59321 -0.383103 8.37346
        CHANNELS 6 Xposition Yposition Zposition Zrotation Xrotation Yrotation
        JOINT RightLeg
        {
          OFFSET 10.2049 -39.0443 19.9651
          CHANNELS 6 Xposition Yposition Zposition Zrotation Xrotation Yrotation
          JOINT RightFoot
          {
            OFFSET -4.84043 -40.8757 1.14775
            CHANNELS 6 Xposition Yposition Zposition Zrotation Xrotation Yrotation
            JOINT RightToe
            {
              OFFSET 9.73671 -6.85346 13.5043
              CHANNELS 6 Xposition Yposition Zposition Zrotation Xrotation Yrotation
              End Site
              {
                OFFSET 0 0 0
              }
            }
          }
        }
      }
      JOINT LeftUpLeg
      {
        OFFSET 4.59322 0.383093 -8.37344
        CHANNELS 6 Xposition Yposition Zposition Zrotation Xrotation Yrotation
        JOINT LeftLeg
        {
          OFFSET 5.42477 -42.6882 -13.2474
          CHANNELS 6 Xposition Yposition Zposition Zrotation Xrotation Yrotation
          JOINT LeftFoot
          {
            OFFSET -11.0948 -37.6875 -12.3342
            CHANNELS 6 Xposition Yposition Zposition Zrotation Xrotation Yrotation
            JOINT LeftToe
            {
              OFFSET 16.3568 -7.51904 0.239281
              CHANNELS 6 Xposition Yposition Zposition Zrotation Xrotation Yrotation
              End Site
              {
                OFFSET 0 0 0
              }
            }
          }
        }
      }
    }
  }
}
MOTION
Frames:	4
Frame Time:	0.0333333
-4.99982 0 98.6497 0 0 -0 -0.301215 83.9811 0.002811 -2.68146 3.50218 7.58465 2e-06 -8e-06 3e-06 -0.11894 -0.224077 0.082164 -0.026472 -0.105469 -0.013598 -0.686867 1.32514 -1.59034 4.85355 17.1933 5.02749 -1.19584 1.89451 -1.92046 3.45712 17.0434 6.48956 -0.938299 1.28786 -1.22386 5.14071 15.5862 8.66939 2.93606 -1.75581 -0.844409 4.15254 8.55483 6.52395 4.28868 -5.22953 0.111978 3.29963 14.5423 11.6337 1.20324 -3.8715 4.94935 -5.33338 -8.03213 12.8703 -11.6922 -16.2822 -12.7676 -0.595355 -13.7862 25.9663 -3.67613 5.62416 -7.67805 13.517 -1.52003 20.8897 13.4187 27.1223 9.20528 6.99273 16.6182 5.71375 0.868827 0.144596 2.0979 6.7187 3.24731 -14.245 10.7794 1.53882 1.40181 -8.81743 -14.5927 -23.9577 -9.15766 9.24117 8.63044 10.5264 -21.3111 -7.51208 0.678142 0.268678 -1.91933 -4.59321 -0.383103 8.37346 2.4203 -12.3114 10.1698 10.2049 -39.0443 19.9651 -4.20091 5.39785 -0.557869 -4.84043 -40.8757 1.14775 7.46217 1.26052 3.8523 9.73671 -6.85346 13.5043 0.307326 5.31215 -0.326427 4.59322 0.383093 -8.37344 -5.35463 12.7041 -3.38677 5.42477 -42.6882 -13.2474 21.2416 -2.08131 -6.41961 -11.0948 -37.6875 -12.3342 -16.9463 -15.0361 3.99347 16.3568 -7.51904 0.239281 9.40346e-16 -4.96962e-17 0.00150192 
-5.48576 0 96.0279 0 0 -0 -0.471032 84.8577 -0.093173 -2.60426 2.26185 9.24846 2e-06 -8e-06 3e-06 -0.0938924 -0.176821 0.0648703 -0.026472 -0.105469 -0.013598 -0.633543 1.32664 -1.75633 4.85355 17.1933 5.02749 -1.16114 1.8894 -2.1873 3.45712 17.0434 6.48956 -0.935341 1.28265 -1.40614 5.14071 15.5862 8.66939 2.62078 -1.24383 -1.25793 4.15254 8.55483 6.52395 4.19058 -4.40728 -0.923797 3.29963 14.5423 11.6337 0.95167 -3.44382 4.23287 -5.33338 -8.03213 12.8703 -10.601 -15.0872 -13.2632 -0.595355 -13.7862 25.9663 -3.41285 5.16305 -7.08331 13.517 -1.52003 20.8897 12.7594 25.3417 8.25909 6.99273 16.6182 5.71375 0.732206 0.18349 1.68497 6.7187 3.24731 -14.245 9.76496 1.26518 0.684296 -8.81743 -14.5927 -23.9577 -7.47862 7.75923 7.03641 10.5264 -21.3111 -7.51208 0.56015 0.169954 -1.5764 -4.59321 -0.383103 8.37346 -0.0534235 -10.0913 8.7453 10.2049 -39.0443 19.9651 -0.936332 1.19482 -0.157903 -4.84043 -40.8757 1.14775 5.77504 3.76289 2.35884 9.73671 -6.85346 13.5043 -1.33037 4.29611 -0.414575 4.59322 0.383093 -8.37344 -4.55439 11.6287 -4.68252 5.42477 -42.6882 -13.2474 21.2557 -2.08092 -6.42349 -11.0948 -37.6875 -12.3342 -16.2624 -11.6711 2.89231 16.3568 -7.51904 0.239281 2.5748e-11 -1e-06 0.00147524 
-5.79557 0 94.2661 0 0 -0 -0.555404 85.6368 -0.345721 -2.36682 0.93187 10.1083 2e-06 -8e-06 3e-06 -0.043797 -0.0824182 0.030296 -0.026472 -0.105469 -0.013598 -0.568955 1.34297 -1.70335 4.85355 17.1933 5.02749 -1.07578 1.8956 -2.18044 3.45712 17.0434 6.48956 -0.876893 1.28654 -1.40741 5.14071 15.5862 8.66939 2.18792 -0.714743 -1.58066 4.15254 8.55483 6.52395 3.86106 -3.42521 -1.86535 3.29963 14.5423 11.6337 0.553207 -3.19306 3.31155 -5.33338 -8.03213 12.8703 -9.5718 -13.6192 -12.981 -0.595355 -13.7862 25.9663 -3.1283 4.67656 -6.45008 13.517 -1.52003 20.8897 12.176 23.5687 7.363 6.99273 16.6182 5.71375 0.550028 0.210974 1.16336 6.7187 3.24731 -14.245 8.38161 1.47627 0.00753296 -8.81743 -14.5927 -23.9577 -5.89594 6.27939 5.53803 10.5264 -21.3111 -7.51208 0.558626 0.0359711 -1.05259 -4.59321 -0.383103 8.37346 -2.75623 -7.69087 8.0503 10.2049 -39.0443 19.9651 3.01356 -3.79073 0.634825 -4.84043 -40.8757 1.14775 3.25999 7.24053 0.960915 9.73671 -6.85346 13.5043 -1.18634 3.38565 -0.360012 4.59322 0.383093 -8.37344 -4.64077 11.3773 -6.06368 5.42477 -42.6882 -13.2474 21.2688 -2.08057 -6.42274 -11.0948 -37.6875 -12.3342 -15.4174 -9.67567 3.13283 16.3568 -7.51904 0.239281 -0.0360931 0.0969562 0.00135408 
-5.89828 0 92.3851 0 0 -0 -0.449582 86.8983 -1.51521 -1.57147 -0.672803 9.31629 2e-06 -8e-06 3e-06 -0.265568 -0.501381 0.183178 -0.026472 -0.105469 -0.013598 -0.380267 1.17526 -1.50044 4.85355 17.1933 5.02749 -0.716797 1.71686 -1.72429 3.45712 17.0434 6.48956 -0.599351 1.16523 -1.12377 5.14071 15.5862 8.66939 1.13739 0.166724 -1.56739 4.15254 8.55483 6.52395 2.58655 -1.29238 -2.58128 3.29963 14.5423 11.6337 -0.537981 -3.52772 1.37651 -5.33338 -8.03213 12.8703 -5.69504 -9.22488 -9.95344 -0.595355 -13.7862 25.9663 -2.2511 3.24816 -4.55403 13.517 -1.52003 20.8897 9.96231 19.2217 6.02089 6.99273 16.6182 5.71375 0.435742 0.453268 0.51071 6.7187 3.24731 -14.245 4.82998 2.53842 -0.552245 -8.81743 -14.5927 -23.9577 -3.15692 3.51801 2.95587 10.5264 -21.3111 -7.51208 0.716464 -0.300147 0.219282 -4.59321 -0.383103 8.37346 -10.2358 -2.33955 8.50317 10.2049 -39.0443 19.9651 16.2674 -18.741 5.46483 -4.84043 -40.8757 1.14775 -5.93389 21.8236 -2.11607 9.73671 -6.85346 13.5043 3.84345 -0.802547 0.546678 4.59322 0.383093 -8.37344 -6.00577 11.5013 -6.91294 5.42477 -42.6882 -13.2474 21.2491 -2.08027 -6.42165 -11.0948 -37.6875 -12.3342 -14.455 -6.01288 4.45543 16.3568 -7.51904 0.239281 0.700694 -1.85625 -0.00208283 
